<?xml version="1.0" encoding="UTF-8"?><svg xmlns="http://www.w3.org/2000/svg" width="165.86mm" height="136.08mm" viewBox="0 0 470.16 385.75"><defs><style>.cls-1{fill:#231f20;stroke-width:0px;}</style></defs><g id="text"><path class="cls-1" d="M24.25,286.2l5.69-.94v-51.68l-5.69-.94v-2.04h22.93v2.04l-5.77.94v22.87h20.16v-22.87l-5.77-.94v-2.04h22.85v2.04l-5.62.94v51.68l5.62.94v2.12h-22.85v-2.12l5.77-.94v-25.25h-20.16v25.25l5.77.94v2.12h-22.93v-2.12Z"/><path class="cls-1" d="M85.8,278.64l16.08-48.37h6.08l17.85,54.91,5.08,1.02v2.12h-23.7v-2.12l6.31-.85-5-16.32h-16l-5,16.15,6.08,1.02v2.12h-15v-2.12c3.62-.6,5.62-2.64,7.23-7.57ZM100.5,243.87l-7,22.1h13.93l-6.92-22.1Z"/><path class="cls-1" d="M131.66,286.2l5.92-.94v-51.68l-5.92-.94v-2.04h23.39v2.04l-6,.94v51.68l6,.94v2.12h-23.39v-2.12Z"/><path class="cls-1" d="M159.51,286.2l5.62-.94v-51.68l-5.62-.94v-2.04h26.62c7.39,0,18.39,2.3,18.39,14.45,0,8.67-6.23,12.75-11.39,14.28,3.15,8.33,9.31,19.72,15.62,26.01l4.54.85v2.12h-17.08c-6-7.31-10.62-17.68-13.54-26.1h-6.08v23.04l6.08.94v2.12h-23.16v-2.12ZM192.13,245.83c0-10.88-5.39-12.5-13.46-12.5h-2.08v26.18c10.77,0,15.54-1.62,15.54-13.69Z"/><path class="cls-1" d="M33.87,209.75l6.85-1.02v-54.4h-11.54c-2.31,3.32-3.85,8.25-5.46,13.26h-.62l.38-14.71h39.47l.54,14.71h-.69c-1.46-5.1-3-9.95-5.46-13.26h-11.62v54.4l7,1.02v.85h-18.85v-.85Z"/><path class="cls-1" d="M66.34,209.75l6.85-1.02v-53.98l-6.85-1.02v-.85h18.85v.85l-6.92,1.02v25.08h27.93v-25.08l-6.92-1.02v-.85h18.85v.85l-6.85,1.02v53.98l6.85,1.02v.85h-18.85v-.85l6.92-1.02v-27.46h-27.93v27.46l6.92,1.02v.85h-18.85v-.85Z"/><path class="cls-1" d="M121.96,209.75l6.77-1.02v-53.98l-6.77-1.02v-.85h39.47l.38,15.22h-.77c-1.85-6.12-2.85-9.35-5.54-13.69h-21.7v25.08h14.54c2.54-1.96,3.62-6.38,4.31-11.22h.69v23.89h-.69c-.69-4.85-1.77-9.18-4.31-11.14h-14.54v28.05h22.54c2.92-4.59,4.85-12.07,6.08-16.83h.77l-.92,18.36h-40.31v-.85Z"/><path class="cls-1" d="M22.33,363.76l7.31-1.02,10.39-53.98-6.92-1.02.23-.85h18.93c7.39,0,15.77,2.64,15.77,11.14s-5.62,14.03-16.77,16.07c7.31.34,15.39,4.76,15.39,12.75,0,12.67-10.31,17.77-22.31,17.77h-22.16l.15-.85ZM45.72,362.91c12.39,0,15.31-11.31,15.31-17.6,0-6.63-4.46-10.2-14.31-10.2h-6.77l-5.39,27.8h11.16ZM46.41,333.41c11.16,0,15.93-5.1,15.93-15.98,0-6.55-5.23-8.93-12.77-8.93h-4.46l-4.85,24.91h6.15Z"/><path class="cls-1" d="M112.27,364.61h-18.31l.15-.85,7.23-.94-2.38-20.91h-18.54l-10,20.23,6.23,1.62-.15.85h-14.93l.15-.85c4.23-.6,6.92-1.53,10.23-7.99l24.93-49.22h2.62l6.77,56.02,6.15,1.19-.15.85ZM95.19,312.67l-13.93,27.71h17.46l-3.54-27.71Z"/><path class="cls-1" d="M109.42,363.76l7.31-1.02,10.39-53.98-6.85-1.02.15-.85h20.85c6,0,15.31,2.38,15.31,12.33,0,10.63-8.69,15.22-14.39,16.83,1.62,8.33,7.08,20.23,10.69,26.78l5.46.94-.15.85h-10.69c-3.46-6.55-7.92-17.6-9.92-26.44h-11.08l-4.77,24.57,7.08,1.02-.15.85h-19.39l.15-.85ZM150.73,318.96c0-7.99-5.62-10.54-13.08-10.54h-5.46l-5.46,28.31c15.54,0,24-3.32,24-17.77Z"/></g><g id="Layer_3"><path class="cls-1" d="M438.78,348.1c-4.19,0-7.7-.35-10.14-.7l-1.51-.21c-12.14-1.71-25.91-3.65-40.92-13.08-5.34-3.36-15.65-10.85-24.64-23.34-5.07-7.04-6.8-11.58-9.2-17.87-2.13-5.58-4.78-12.52-10.82-23.77-5.25-9.77-9.04-16.83-16.06-25.06-5.45-6.39-12.92-15.14-24.67-21.16-8.73-4.47-15.05-5-21.16-5.51-6.37-.53-12.95-1.08-22.06-6.1-3.17-1.75-8.84-6.72-21.37-17.8-11.11-9.82-17.81-15.75-28.71-26.13-9.42-8.97-14.57-14.22-22.37-22.16-4.07-4.15-8.69-8.85-15.04-15.25-5.54-5.57-11.12-11.28-16.52-16.81-9.62-9.84-19.58-20.02-29.61-29.77-1.67-1.62-3.28-3.18-4.82-4.67-17.66-17.08-27.39-26.48-25.16-36.83,1.04-4.83,4.85-10.43,9.87-11.31,5.07-.88,9.06,3.44,15.68,10.61,2.32,2.51,4.95,5.36,8.06,8.46,5.27,5.24,7.79,7.07,10.98,9.38,3.08,2.23,6.91,5,14.48,11.72,8.8,7.8,12.59,12,16.61,16.44,3.68,4.07,7.48,8.27,15.44,15.61,6.12,5.64,9.15,8.03,12.99,11.04,4.06,3.19,9.11,7.17,19.77,16.62,7.12,6.32,15.35,13.85,23.31,21.12,5.1,4.67,7.93,7.28,10.06,9.25,2.56,2.37,4.11,3.8,7.42,6.77,9.55,8.57,13.98,12.2,16.91,14.61,2.84,2.33,4.13,3.39,7.15,6.54,6.59,6.88,9.97,11.85,12.43,15.47,3.12,4.59,4.84,7.12,9.97,9.17,3.69,1.47,6.87,1.8,9.94,2.12,4.4.45,8.21.85,12.07,4.54,2.21,2.12,2.85,3.8,3.73,6.14.61,1.62,1.37,3.63,2.91,6.36,1.19,2.1,7.68,12.9,18.73,18.74,3.97,2.1,6.15,2.3,10.11,2.67,3.72.35,8.82.83,18.18,3.11,8.07,1.97,13.39,3.27,19.77,6.6,5.96,3.11,12.72,6.64,17.66,14,5.33,7.94,9.22,21.72,5.15,33.21-.17.48-.36.96-.55,1.46-.9,2.33-1.91,4.96-1.61,8.52.11,1.24.88,7.64,5.63,11.3,5.06,3.89,12.32,2.72,20.73,1.36,2.81-.45,5.14-1.01,7.2-1.5,4.81-1.14,7.99-1.9,11.34.11,1.99,1.19,4.24,3.42,4.04,5.82-.35,4.21-8.2,6.45-11.97,7.53-7.11,2.03-13.86,2.65-19.41,2.65ZM105.13,31.46c-.36,0-.72.03-1.09.1-4.42.77-8.08,5.96-9.06,10.54h0c-2.11,9.81,7.48,19.08,24.88,35.91,1.55,1.49,3.15,3.05,4.83,4.67,10.05,9.76,20,19.94,29.63,29.79,5.4,5.52,10.98,11.23,16.52,16.8,6.36,6.4,10.97,11.1,15.05,15.25,7.79,7.94,12.93,13.18,22.34,22.14,10.88,10.36,17.58,16.29,28.68,26.1,11.59,10.25,17.98,15.9,21.19,17.67,8.92,4.92,15.11,5.43,21.66,5.98,6.21.52,12.63,1.06,21.53,5.62,11.93,6.11,19.47,14.95,24.98,21.4,7.09,8.31,10.91,15.41,16.18,25.24,6.07,11.3,8.73,18.28,10.87,23.89,2.37,6.22,4.09,10.71,9.08,17.65,8.9,12.36,19.08,19.76,24.36,23.08,14.83,9.32,28.49,11.24,40.53,12.93l1.51.21c5.6.79,16.82,1.6,29.13-1.92,3.28-.94,10.95-3.13,11.25-6.65.17-2.07-2.15-4.04-3.55-4.88-3-1.79-5.86-1.11-10.6,0-2.08.49-4.43,1.05-7.27,1.51-8.64,1.4-16.1,2.6-21.5-1.55-5.09-3.92-5.91-10.69-6.02-12-.32-3.79.74-6.54,1.67-8.97.19-.49.37-.96.54-1.44,3.95-11.17.16-24.58-5.04-32.32-4.8-7.15-11.44-10.61-17.29-13.67-6.27-3.27-11.55-4.56-19.55-6.51-9.29-2.26-14.34-2.74-18.03-3.08-3.95-.37-6.33-.59-10.48-2.79-11.3-5.97-17.92-16.98-19.14-19.13-1.58-2.79-2.35-4.85-2.98-6.49-.87-2.29-1.44-3.81-3.49-5.77-3.61-3.46-7.26-3.83-11.48-4.27-2.99-.31-6.39-.66-10.21-2.18-5.41-2.16-7.3-4.94-10.42-9.54-2.44-3.59-5.79-8.52-12.33-15.34-2.97-3.1-4.25-4.15-7.06-6.45-2.94-2.41-7.38-6.05-16.94-14.64-3.31-2.97-4.86-4.41-7.43-6.78-2.12-1.96-4.95-4.58-10.05-9.24-7.95-7.27-16.18-14.8-23.3-21.11-10.64-9.44-15.68-13.4-19.73-16.58-3.85-3.03-6.9-5.42-13.05-11.09-7.99-7.37-11.81-11.59-15.5-15.67-4-4.42-7.78-8.6-16.53-16.36-7.54-6.68-11.34-9.44-14.4-11.65-3.23-2.34-5.78-4.19-11.1-9.48-3.13-3.11-5.76-5.97-8.09-8.49-5.87-6.36-9.59-10.4-13.68-10.4Z"/><path class="cls-1" d="M238.33,181.79c-4.9,0-9.03-4.53-10.51-8.98-1.47-4.45-.43-7.72.71-9.69h0c.13-.23,3.26-5.53,9.38-5.55h.04c5.29,0,8.42,4.04,8.99,4.85,3.14,4.45,2.16,9.85.36,13.12-.96,1.75-3.7,5.87-8.35,6.22-.2.02-.4.02-.6.02ZM229.39,163.63c-1.03,1.79-1.98,4.78-.62,8.87,1.42,4.28,5.44,8.62,10.09,8.28,4.17-.32,6.67-4.1,7.55-5.71,1.66-3.02,2.57-7.99-.3-12.06-.52-.74-3.37-4.43-8.17-4.43h-.03c-5.54.02-8.4,4.85-8.52,5.05h0Z"/><path class="cls-1" d="M261.08,237.01c-1.26,0-2.47-.21-3.56-.64-4.19-1.69-5.4-6.19-7.07-12.43-.73-2.73-1.56-5.82-2.78-9.12-3.49-9.48-8.01-14.92-12.81-20.67-1.52-1.83-3.1-3.72-4.66-5.77-10.01-13.14-12.78-24.15-15.98-36.88-2.73-10.84-5.81-23.12-13.83-39.73-6.12-12.69-13.83-23.52-29.18-45.09-7.52-10.57-14.22-19.31-20.13-27.02-14.25-18.59-22.1-28.84-18.15-35.18h0c2.57-4.14,9.47-5.27,14.37-3.94,7.74,2.1,11.08,10.68,14.61,19.76.7,1.81,1.43,3.69,2.2,5.5,3.35,7.98,5.5,10.39,10.22,15.67,4.59,5.15,11.54,12.93,24.27,31,5.53,7.85,8.07,11.84,12.27,18.44,3.8,5.98,9.01,14.18,19.1,29.4,3.86,5.83,6.95,10.02,9.67,13.72,4.14,5.61,7.4,10.04,11.08,17.15,3.83,7.42,7.2,17.26,13.31,35.14,11.64,34.03,12.25,40.2,8.42,45.11-2.69,3.45-7.31,5.58-11.37,5.58ZM133.78,5c-3.58,5.76,4.12,15.8,18.1,34.04,5.91,7.72,12.62,16.46,20.15,27.05,15.39,21.63,23.11,32.48,29.27,45.24,8.06,16.7,11.16,29.03,13.9,39.92,3.31,13.15,5.92,23.54,15.81,36.52,1.55,2.03,3.11,3.91,4.63,5.73,4.85,5.83,9.43,11.33,12.98,20.97,1.23,3.34,2.06,6.46,2.8,9.21,1.6,5.95,2.75,10.26,6.48,11.76,4.19,1.69,10.49-.43,13.77-4.63,3.51-4.5,2.81-10.84-8.58-44.17-6.1-17.83-9.46-27.66-13.26-35.01-3.64-7.04-6.88-11.44-11-17.02-2.73-3.7-5.82-7.9-9.7-13.76-10.09-15.23-15.3-23.43-19.11-29.41-4.19-6.59-6.72-10.57-12.24-18.4-12.7-18.02-19.62-25.78-24.2-30.91-4.79-5.37-6.97-7.81-10.39-15.95-.77-1.83-1.5-3.71-2.21-5.53-3.44-8.84-6.68-17.19-13.94-19.16-4.58-1.24-11-.13-13.26,3.5h0Z"/><path class="cls-1" d="M270.61,385.75c-10.21,0-17.97-8.34-21.77-12.41-4.36-4.68-9.86-12.58-11.29-23.66-1.02-7.88.25-15.84,3.76-23.65,2.46-5.47,4.98-8.19,7.66-11.07,2.32-2.49,4.71-5.07,7.24-9.7,5.57-10.18,6.11-20,6.32-23.7.71-12.93-3.49-22.84-6.56-30.07-2.87-6.77-4.95-11.66-1.83-15.4h0c3.73-4.47,12.26-4.37,16.62-1.14,3.52,2.6,3.72,6.55,4.09,13.71.16,3.11.36,6.99.89,11.61.02.14,1.7,14.32,6.88,29.66,4.84,14.31,7.27,21.48,13.15,26.89,3.47,3.19,15.97,13.44,27.5,18.51,1.3.57,4.58,2.01,5.59,5.08,1.12,3.4-.83,7.39-3.33,9.57-2.12,1.85-4.1,1.96-6.19,2.08-1.7.09-3.47.19-5.62,1.19-2.71,1.26-3.71,2.92-5.23,5.42-1.06,1.76-2.38,3.94-4.69,6.67-4.42,5.22-8.85,8.12-14.46,11.79-8.48,5.55-12.73,8.33-17.78,8.58-.32.02-.63.02-.95.02ZM254.9,236.75h0c-2.73,3.27-.75,7.92,1.98,14.36,3.11,7.32,7.36,17.35,6.64,30.51-.21,3.76-.76,13.75-6.44,24.13-2.59,4.73-5.03,7.36-7.39,9.9-2.62,2.82-5.08,5.47-7.48,10.79-3.44,7.64-4.67,15.42-3.68,23.11,1.4,10.81,6.77,18.53,11.03,23.11,3.8,4.08,11.73,12.56,21.93,12.06,4.78-.24,8.96-2.97,17.28-8.42,5.76-3.77,9.92-6.49,14.25-11.6,2.26-2.67,3.56-4.82,4.6-6.54,1.55-2.57,2.67-4.42,5.67-5.81,2.32-1.08,4.27-1.19,5.98-1.28,2-.11,3.73-.21,5.59-1.83,2.2-1.92,4.01-5.55,3.04-8.5-.87-2.65-3.75-3.91-4.97-4.45-11.72-5.15-24.34-15.5-27.84-18.72-6.07-5.58-8.53-12.84-13.42-27.3-5.23-15.45-6.92-29.73-6.93-29.87-.54-4.65-.74-8.54-.9-11.67-.35-6.86-.55-10.64-3.69-12.96-3.94-2.91-11.92-3.03-15.26.98Z"/><path class="cls-1" d="M269.84,375.81c-.63,0-1.26-.03-1.91-.1-7.44-.81-13.92-6.43-18.25-15.81-5.28-11.45-1.32-22.39-.02-25.99,1.34-3.71,3.59-9.93,9.87-14.59,2.62-1.95,11.91-8,21.43-4.33,9.58,3.69,12.23,14.54,13.5,19.75,2.52,10.34.98,20.27-4.34,27.95-3.49,5.03-10.6,13.12-20.28,13.12ZM274.75,314.85c-7.07,0-13.21,4.22-14.62,5.27h0c-6.04,4.48-8.22,10.52-9.53,14.12-1.27,3.5-5.12,14.15-.02,25.23,2.42,5.24,7.9,14.19,17.45,15.23,10.13,1.11,17.68-7.41,21.26-12.59,5.16-7.45,6.65-17.09,4.19-27.14-1.23-5.05-3.8-15.55-12.89-19.05-1.97-.76-3.95-1.07-5.86-1.07Z"/><path class="cls-1" d="M394.18,318.94c-3.65,0-7.08-.74-9.55-1.45-7.62-2.21-12.13-7.08-15.75-11.01-4.08-4.42-8.31-8.99-9.05-16.19-.49-4.68.58-9.35,3.17-13.88h0c1.06-1.86,6.88-11.17,17.45-12.28,9.11-.95,15.78,4.82,19.78,8.26,6.59,5.7,10.56,12.45,11.81,20.09.67,4.09,2.44,14.95-4.81,21.78-3.79,3.57-8.59,4.67-13.05,4.67ZM382.49,265.02c-.63,0-1.28.03-1.94.1-10.09,1.06-15.67,10-16.69,11.78h0c-2.48,4.34-3.51,8.81-3.04,13.28.71,6.87,4.82,11.32,8.79,15.62,3.54,3.83,7.94,8.59,15.29,10.72,5.28,1.53,15.1,3.17,21.63-2.99,6.86-6.46,5.15-16.95,4.51-20.89-1.21-7.4-5.07-13.95-11.47-19.49-3.81-3.29-9.41-8.13-17.09-8.13Z"/></g></svg>